<svg xmlns="http://www.w3.org/2000/svg" viewBox="0 0 1600 1200" preserveAspectRatio="xMidYMid slice" role="img" aria-label="Attached bathroom placeholder">
  <defs>
    <linearGradient id="bg" x1="0" y1="0" x2="1" y2="1">
      <stop offset="0" stop-color="#19262e"/>
      <stop offset="0.55" stop-color="#36505e"/>
      <stop offset="1" stop-color="#0c161c"/>
    </linearGradient>
    <radialGradient id="glow" cx="0.3" cy="0.3" r="0.55">
      <stop offset="0" stop-color="#cfe5f2" stop-opacity="0.35"/>
      <stop offset="1" stop-color="#000" stop-opacity="0"/>
    </radialGradient>
    <pattern id="grid" width="80" height="80" patternUnits="userSpaceOnUse">
      <path d="M0 80 L80 80 M80 0 L80 80" stroke="#cfe5f2" stroke-width="0.5" stroke-opacity="0.16"/>
    </pattern>
  </defs>
  <rect width="1600" height="1200" fill="url(#bg)"/>
  <rect width="1600" height="1200" fill="url(#grid)"/>
  <rect width="1600" height="1200" fill="url(#glow)"/>
  <g stroke="#cfe5f2" stroke-width="1.5" fill="none" opacity="0.55">
    <rect x="80" y="80" width="1440" height="1040" rx="6"/>
    <rect x="110" y="110" width="1380" height="980" rx="4" stroke-width="0.6" opacity="0.6"/>
  </g>
  <g transform="translate(800 500)" fill="none" stroke="#cfe5f2" stroke-width="2.4" stroke-linecap="round">
    <circle cx="0" cy="-120" r="40"/>
    <path d="M0 -80 L0 -10"/>
    <path d="M-90 0 L90 0 L70 100 L-70 100 Z"/>
    <g stroke-width="1.8" opacity="0.7">
      <path d="M-30 -100 L-30 -50 M0 -100 L0 -50 M30 -100 L30 -50"/>
      <path d="M-50 -130 L-50 -80 M50 -130 L50 -80"/>
    </g>
  </g>
  <text x="800" y="780" text-anchor="middle" font-family="Georgia, 'Times New Roman', serif" font-size="68" fill="#fff" font-style="italic">Attached Bathroom</text>
  <text x="800" y="850" text-anchor="middle" font-family="Inter, Arial, sans-serif" font-size="22" fill="#cfe5f2" letter-spacing="6">ROYAL RESORT · PRAYAGRAJ</text>
  <text x="800" y="1080" text-anchor="middle" font-family="Inter, Arial, sans-serif" font-size="16" fill="#fff" opacity="0.55" letter-spacing="4">PHOTO PLACEHOLDER</text>
</svg>
