<svg xmlns="http://www.w3.org/2000/svg" viewBox="0 0 1600 1200" preserveAspectRatio="xMidYMid slice" role="img" aria-label="Dressing area placeholder">
  <defs>
    <linearGradient id="bg" x1="0" y1="0" x2="1" y2="1">
      <stop offset="0" stop-color="#143329"/>
      <stop offset="0.5" stop-color="#2f6a55"/>
      <stop offset="1" stop-color="#0a1d17"/>
    </linearGradient>
    <radialGradient id="glow" cx="0.5" cy="0.3" r="0.55">
      <stop offset="0" stop-color="#ffe1a3" stop-opacity="0.4"/>
      <stop offset="1" stop-color="#000" stop-opacity="0"/>
    </radialGradient>
    <pattern id="dia" width="60" height="60" patternUnits="userSpaceOnUse" patternTransform="rotate(45)">
      <path d="M30 0 L30 60 M0 30 L60 30" stroke="#d8b675" stroke-width="0.5" stroke-opacity="0.14"/>
    </pattern>
  </defs>
  <rect width="1600" height="1200" fill="url(#bg)"/>
  <rect width="1600" height="1200" fill="url(#dia)"/>
  <rect width="1600" height="1200" fill="url(#glow)"/>
  <g stroke="#d8b675" stroke-width="1.4" fill="none" opacity="0.5">
    <rect x="80" y="80" width="1440" height="1040" rx="6"/>
    <rect x="110" y="110" width="1380" height="980" rx="4" stroke-width="0.5" opacity="0.55"/>
  </g>
  <g transform="translate(800 510)" fill="none" stroke="#d8b675" stroke-width="2.4" stroke-linecap="round">
    <path d="M-130 -140 Q-130 -180 -90 -180 L90 -180 Q130 -180 130 -140 L130 60 Q130 100 90 100 L-90 100 Q-130 100 -130 60 Z"/>
    <g fill="#d8b675" fill-opacity="0.3" stroke="none">
      <circle cx="-150" cy="-150" r="6"/>
      <circle cx="150" cy="-150" r="6"/>
      <circle cx="-160" cy="-100" r="6"/>
      <circle cx="160" cy="-100" r="6"/>
      <circle cx="-170" cy="-50" r="6"/>
      <circle cx="170" cy="-50" r="6"/>
      <circle cx="-170" cy="0" r="6"/>
      <circle cx="170" cy="0" r="6"/>
      <circle cx="-160" cy="50" r="6"/>
      <circle cx="160" cy="50" r="6"/>
    </g>
    <path d="M-140 100 L-160 180 L160 180 L140 100"/>
    <path d="M-200 180 L200 180"/>
    <g stroke-width="1.6" opacity="0.75">
      <path d="M-60 -100 Q-60 -50 0 -50 Q60 -50 60 -100"/>
      <circle cx="-60" cy="-100" r="3" fill="#d8b675"/>
      <circle cx="60" cy="-100" r="3" fill="#d8b675"/>
    </g>
  </g>
  <text x="800" y="820" text-anchor="middle" font-family="'Instrument Serif', Georgia, serif" font-size="78" fill="#fff" font-style="italic">Bridal Dressing Area</text>
  <text x="800" y="890" text-anchor="middle" font-family="Inter, Arial, sans-serif" font-size="20" fill="#d8b675" letter-spacing="6">ROYAL RESORT · PRAYAGRAJ</text>
  <text x="800" y="1080" text-anchor="middle" font-family="Inter, Arial, sans-serif" font-size="14" fill="#fff" opacity="0.5" letter-spacing="4">PHOTO PLACEHOLDER</text>
</svg>
