<svg xmlns="http://www.w3.org/2000/svg" viewBox="0 0 1600 1200" preserveAspectRatio="xMidYMid slice" role="img" aria-label="Lawn at dusk placeholder">
  <defs>
    <linearGradient id="bg" x1="0" y1="0" x2="0" y2="1">
      <stop offset="0" stop-color="#1a3540"/>
      <stop offset="0.45" stop-color="#3a6275"/>
      <stop offset="0.75" stop-color="#6d4a2a"/>
      <stop offset="1" stop-color="#1c1108"/>
    </linearGradient>
    <radialGradient id="sun" cx="0.7" cy="0.4" r="0.35">
      <stop offset="0" stop-color="#ffd99a" stop-opacity="0.85"/>
      <stop offset="1" stop-color="#000" stop-opacity="0"/>
    </radialGradient>
    <pattern id="grid" width="80" height="80" patternUnits="userSpaceOnUse">
      <path d="M0 80 L80 80 M80 0 L80 80" stroke="#d4b46a" stroke-width="0.5" stroke-opacity="0.16"/>
    </pattern>
  </defs>
  <rect width="1600" height="1200" fill="url(#bg)"/>
  <rect width="1600" height="1200" fill="url(#grid)"/>
  <rect width="1600" height="1200" fill="url(#sun)"/>
  <g stroke="#d4b46a" stroke-width="1.5" fill="none" opacity="0.55">
    <rect x="80" y="80" width="1440" height="1040" rx="6"/>
    <rect x="110" y="110" width="1380" height="980" rx="4" stroke-width="0.6" opacity="0.6"/>
  </g>
  <g fill="#0a1010" opacity="0.55">
    <path d="M0 900 Q400 850 800 880 T1600 870 L1600 1200 L0 1200 Z"/>
  </g>
  <g transform="translate(800 540)" stroke="#d4b46a" stroke-width="2.4" fill="none" stroke-linecap="round">
    <circle cx="0" cy="0" r="80"/>
    <path d="M-160 0 L-90 0 M90 0 L160 0 M0 -160 L0 -90 M0 90 L0 160"/>
    <path d="M-110 -110 L-65 -65 M110 -110 L65 -65 M-110 110 L-65 65 M110 110 L65 65"/>
  </g>
  <text x="800" y="780" text-anchor="middle" font-family="Georgia, 'Times New Roman', serif" font-size="68" fill="#fff" font-style="italic">Open Lawn</text>
  <text x="800" y="850" text-anchor="middle" font-family="Inter, Arial, sans-serif" font-size="22" fill="#d4b46a" letter-spacing="6">ROYAL RESORT · PRAYAGRAJ</text>
  <text x="800" y="1080" text-anchor="middle" font-family="Inter, Arial, sans-serif" font-size="16" fill="#fff" opacity="0.55" letter-spacing="4">PHOTO PLACEHOLDER</text>
</svg>
