<svg xmlns="http://www.w3.org/2000/svg" viewBox="0 0 1600 1200" preserveAspectRatio="xMidYMid slice" role="img" aria-label="Mehndi function placeholder">
  <defs>
    <linearGradient id="bg" x1="0" y1="0" x2="1" y2="1">
      <stop offset="0" stop-color="#3a1a06"/>
      <stop offset="0.55" stop-color="#8a4514"/>
      <stop offset="1" stop-color="#1c0d04"/>
    </linearGradient>
    <radialGradient id="glow" cx="0.5" cy="0.35" r="0.7">
      <stop offset="0" stop-color="#ffd99a" stop-opacity="0.5"/>
      <stop offset="1" stop-color="#000" stop-opacity="0"/>
    </radialGradient>
    <pattern id="dia" width="60" height="60" patternUnits="userSpaceOnUse" patternTransform="rotate(45)">
      <path d="M30 0 L30 60 M0 30 L60 30" stroke="#ffd99a" stroke-width="0.5" stroke-opacity="0.16"/>
    </pattern>
  </defs>
  <rect width="1600" height="1200" fill="url(#bg)"/>
  <rect width="1600" height="1200" fill="url(#dia)"/>
  <rect width="1600" height="1200" fill="url(#glow)"/>
  <g stroke="#ffd99a" stroke-width="1.5" fill="none" opacity="0.55">
    <rect x="80" y="80" width="1440" height="1040" rx="6"/>
    <rect x="110" y="110" width="1380" height="980" rx="4" stroke-width="0.6" opacity="0.6"/>
  </g>
  <g transform="translate(800 510)" fill="none" stroke="#ffd99a" stroke-width="2.4" stroke-linecap="round">
    <circle cx="0" cy="0" r="100"/>
    <circle cx="0" cy="0" r="70" stroke-width="1.6" opacity="0.7"/>
    <g stroke-width="1.8">
      <path d="M0 -100 L0 -160 M0 100 L0 160 M-100 0 L-160 0 M100 0 L160 0"/>
      <path d="M-70 -70 L-115 -115 M70 -70 L115 -115 M-70 70 L-115 115 M70 70 L115 115"/>
    </g>
    <g fill="#ffd99a" stroke="none">
      <circle cx="0" cy="-160" r="6"/>
      <circle cx="0" cy="160" r="6"/>
      <circle cx="-160" cy="0" r="6"/>
      <circle cx="160" cy="0" r="6"/>
      <circle cx="-115" cy="-115" r="5"/>
      <circle cx="115" cy="-115" r="5"/>
      <circle cx="-115" cy="115" r="5"/>
      <circle cx="115" cy="115" r="5"/>
    </g>
    <g fill="#ffd99a" stroke="none" opacity="0.55">
      <circle cx="0" cy="0" r="6"/>
      <circle cx="0" cy="-50" r="4"/>
      <circle cx="0" cy="50" r="4"/>
      <circle cx="-50" cy="0" r="4"/>
      <circle cx="50" cy="0" r="4"/>
    </g>
  </g>
  <text x="800" y="800" text-anchor="middle" font-family="Georgia, 'Times New Roman', serif" font-size="68" fill="#fff" font-style="italic">Mehndi &amp; Haldi</text>
  <text x="800" y="870" text-anchor="middle" font-family="Inter, Arial, sans-serif" font-size="22" fill="#ffd99a" letter-spacing="6">ROYAL RESORT · PRAYAGRAJ</text>
  <text x="800" y="1080" text-anchor="middle" font-family="Inter, Arial, sans-serif" font-size="16" fill="#fff" opacity="0.55" letter-spacing="4">PHOTO PLACEHOLDER</text>
</svg>
