<svg xmlns="http://www.w3.org/2000/svg" viewBox="0 0 1600 1200" preserveAspectRatio="xMidYMid slice" role="img" aria-label="Deluxe AC room placeholder">
  <defs>
    <linearGradient id="bg" x1="0" y1="0" x2="1" y2="1">
      <stop offset="0" stop-color="#0a1d17"/>
      <stop offset="0.55" stop-color="#1a3530"/>
      <stop offset="1" stop-color="#091310"/>
    </linearGradient>
    <radialGradient id="lamp" cx="0.85" cy="0.25" r="0.3">
      <stop offset="0" stop-color="#ffd99a" stop-opacity="0.6"/>
      <stop offset="1" stop-color="#000" stop-opacity="0"/>
    </radialGradient>
    <pattern id="dia" width="60" height="60" patternUnits="userSpaceOnUse" patternTransform="rotate(45)">
      <path d="M30 0 L30 60 M0 30 L60 30" stroke="#d8b675" stroke-width="0.5" stroke-opacity="0.14"/>
    </pattern>
  </defs>
  <rect width="1600" height="1200" fill="url(#bg)"/>
  <rect width="1600" height="1200" fill="url(#dia)"/>
  <rect width="1600" height="1200" fill="url(#lamp)"/>
  <g stroke="#d8b675" stroke-width="1.4" fill="none" opacity="0.5">
    <rect x="80" y="80" width="1440" height="1040" rx="6"/>
    <rect x="110" y="110" width="1380" height="980" rx="4" stroke-width="0.5" opacity="0.55"/>
  </g>
  <g transform="translate(800 520)" fill="none" stroke="#d8b675" stroke-width="2.4" stroke-linecap="round" stroke-linejoin="round">
    <rect x="-240" y="0" width="480" height="160" rx="8"/>
    <rect x="-240" y="-100" width="480" height="100" rx="20" fill="#d8b675" fill-opacity="0.18"/>
    <path d="M-200 60 L-200 160 M200 60 L200 160 M0 60 L0 160"/>
    <path d="M-220 60 L220 60"/>
    <path d="M-300 160 L300 160"/>
    <path d="M-300 160 L-300 200 M300 160 L300 200"/>
  </g>
  <text x="800" y="780" text-anchor="middle" font-family="'Instrument Serif', Georgia, serif" font-size="78" fill="#fff" font-style="italic">Deluxe AC Room</text>
  <text x="800" y="850" text-anchor="middle" font-family="Inter, Arial, sans-serif" font-size="20" fill="#d8b675" letter-spacing="6">ROYAL RESORT · PRAYAGRAJ</text>
  <text x="800" y="1080" text-anchor="middle" font-family="Inter, Arial, sans-serif" font-size="14" fill="#fff" opacity="0.5" letter-spacing="4">PHOTO PLACEHOLDER</text>
</svg>
