<svg xmlns="http://www.w3.org/2000/svg" viewBox="0 0 1600 1200" preserveAspectRatio="xMidYMid slice" role="img" aria-label="Decorated stage placeholder">
  <defs>
    <linearGradient id="bg" x1="0" y1="0" x2="1" y2="1">
      <stop offset="0" stop-color="#2a0606"/>
      <stop offset="0.55" stop-color="#6d0000"/>
      <stop offset="1" stop-color="#150202"/>
    </linearGradient>
    <radialGradient id="spot" cx="0.5" cy="0.3" r="0.5">
      <stop offset="0" stop-color="#fff3d6" stop-opacity="0.55"/>
      <stop offset="1" stop-color="#000" stop-opacity="0"/>
    </radialGradient>
    <pattern id="dia" width="60" height="60" patternUnits="userSpaceOnUse" patternTransform="rotate(45)">
      <path d="M30 0 L30 60 M0 30 L60 30" stroke="#d4b46a" stroke-width="0.6" stroke-opacity="0.18"/>
    </pattern>
  </defs>
  <rect width="1600" height="1200" fill="url(#bg)"/>
  <rect width="1600" height="1200" fill="url(#dia)"/>
  <rect width="1600" height="1200" fill="url(#spot)"/>
  <g stroke="#d4b46a" stroke-width="1.5" fill="none" opacity="0.55">
    <rect x="80" y="80" width="1440" height="1040" rx="6"/>
    <rect x="110" y="110" width="1380" height="980" rx="4" stroke-width="0.6" opacity="0.6"/>
  </g>
  <g transform="translate(800 500)" stroke="#d4b46a" stroke-width="2.4" fill="none" stroke-linecap="round">
    <path d="M-220 -160 L220 -160"/>
    <path d="M-200 -160 Q-180 -40 -200 80 L-160 80 Q-130 -40 -160 -160"/>
    <path d="M200 -160 Q180 -40 200 80 L160 80 Q130 -40 160 -160"/>
    <path d="M-160 -160 Q-120 -100 -80 -160 Q-40 -100 0 -160 Q40 -100 80 -160 Q120 -100 160 -160"/>
    <rect x="-180" y="80" width="360" height="40" rx="4" fill="#d4b46a" fill-opacity="0.25"/>
    <path d="M-140 60 Q0 0 140 60" stroke-width="3"/>
  </g>
  <text x="800" y="760" text-anchor="middle" font-family="Georgia, 'Times New Roman', serif" font-size="68" fill="#fff" font-style="italic">Designer Stage</text>
  <text x="800" y="830" text-anchor="middle" font-family="Inter, Arial, sans-serif" font-size="22" fill="#d4b46a" letter-spacing="6">ROYAL RESORT · PRAYAGRAJ</text>
  <text x="800" y="1080" text-anchor="middle" font-family="Inter, Arial, sans-serif" font-size="16" fill="#fff" opacity="0.55" letter-spacing="4">PHOTO PLACEHOLDER</text>
</svg>
