<svg xmlns="http://www.w3.org/2000/svg" viewBox="0 0 1200 630" role="img" aria-label="Royal Resort Prayagraj — Open Graph image">
  <defs>
    <linearGradient id="bg" x1="0" y1="0" x2="1" y2="1">
      <stop offset="0" stop-color="#0a1d17"/>
      <stop offset="0.55" stop-color="#1f4a3a"/>
      <stop offset="1" stop-color="#091310"/>
    </linearGradient>
    <radialGradient id="glow" cx="0.8" cy="0.3" r="0.5">
      <stop offset="0" stop-color="#d8b675" stop-opacity="0.45"/>
      <stop offset="1" stop-color="#000" stop-opacity="0"/>
    </radialGradient>
    <pattern id="dia" width="48" height="48" patternUnits="userSpaceOnUse" patternTransform="rotate(45)">
      <path d="M24 0 L24 48 M0 24 L48 24" stroke="#d8b675" stroke-width="0.5" stroke-opacity="0.16"/>
    </pattern>
  </defs>
  <rect width="1200" height="630" fill="url(#bg)"/>
  <rect width="1200" height="630" fill="url(#dia)"/>
  <rect width="1200" height="630" fill="url(#glow)"/>
  <g stroke="#d8b675" stroke-width="1.4" fill="none" opacity="0.65">
    <rect x="40" y="40" width="1120" height="550" rx="6"/>
    <rect x="60" y="60" width="1080" height="510" rx="4" stroke-width="0.5" opacity="0.55"/>
  </g>
  <g transform="translate(120 200)">
    <text font-family="Inter, Arial, sans-serif" font-size="22" fill="#d8b675" letter-spacing="8">SORAON · PRAYAGRAJ</text>
    <text y="110" font-family="'Instrument Serif', Georgia, serif" font-size="92" fill="#fff" font-style="italic">Royal Resort</text>
    <text y="180" font-family="'Instrument Serif', Georgia, serif" font-size="42" fill="#fff" opacity="0.92">Premier Wedding &amp; Banquet Resort</text>
    <g transform="translate(0 240)" font-family="Inter, Arial, sans-serif" fill="#fff">
      <text font-size="20" opacity="0.9">AC Banquet Hall for 500 Guests · Mandap · Catering · Rooms</text>
      <text y="42" fill="#d8b675" font-size="28" font-weight="600">₹2.5L · all-inclusive wedding package</text>
    </g>
  </g>
  <g transform="translate(960 320)" fill="none" stroke="#d8b675" stroke-width="3" stroke-linecap="round">
    <path d="M-110 60 L110 60"/>
    <path d="M-95 60 L-95 -40 Q-95 -75 -60 -75 L60 -75 Q95 -75 95 -40 L95 60"/>
    <path d="M-95 -20 L95 -20"/>
    <circle cx="0" cy="-110" r="14" fill="#d8b675"/>
    <path d="M-70 -60 L-70 -20 M-40 -60 L-40 -20 M-10 -60 L-10 -20 M20 -60 L20 -20 M50 -60 L50 -20"/>
  </g>
</svg>
